<svg xmlns="http://www.w3.org/2000/svg" xmlns:xlink="http://www.w3.org/1999/xlink" width="500" zoomAndPan="magnify" viewBox="0 0 375 374.999991" height="500" preserveAspectRatio="xMidYMid meet" version="1.0"><defs><g/><clipPath id="e7424e7bfd"><path d="M 135.449219 110 L 182 110 L 182 211.417969 L 135.449219 211.417969 Z M 135.449219 110 " clip-rule="nonzero"/></clipPath><clipPath id="1130a92858"><path d="M 162 86.238281 L 239.699219 86.238281 L 239.699219 211.417969 L 162 211.417969 Z M 162 86.238281 " clip-rule="nonzero"/></clipPath></defs><g clip-path="url(#e7424e7bfd)"><path fill="#ffffff" d="M 181.597656 110.769531 C 155.734375 113.003906 135.449219 134.695312 135.449219 161.136719 C 135.449219 187.578125 155.734375 209.269531 181.597656 211.519531 L 181.597656 202.933594 C 172.5625 201.992188 164.386719 198.183594 157.984375 192.445312 L 163.496094 186.917969 C 164.386719 186.023438 164.386719 184.550781 163.496094 183.65625 C 162.601562 182.765625 161.128906 182.765625 160.234375 183.65625 L 154.707031 189.183594 C 148.519531 182.265625 144.582031 173.316406 144.054688 163.453125 L 151.863281 163.453125 C 153.136719 163.453125 154.179688 162.410156 154.179688 161.136719 C 154.179688 159.863281 153.136719 158.835938 151.863281 158.835938 L 144.054688 158.835938 C 144.582031 148.976562 148.519531 140.007812 154.707031 133.109375 L 160.234375 138.636719 C 161.128906 139.527344 162.601562 139.527344 163.496094 138.636719 C 164.386719 137.722656 164.386719 136.265625 163.496094 135.359375 L 157.984375 129.851562 C 164.386719 124.105469 172.5625 120.304688 181.597656 119.359375 Z M 181.597656 110.769531 " fill-opacity="1" fill-rule="evenodd"/></g><g clip-path="url(#1130a92858)"><path fill="#ffffff" d="M 239.558594 96.207031 L 228.074219 96.207031 L 228.074219 107.691406 L 239.558594 107.691406 Z M 185.851562 164.695312 L 162.503906 161.402344 L 185.851562 158.109375 L 185.851562 110.40625 L 197.136719 110.40625 C 198.972656 110.40625 200.726562 110.855469 202.261719 111.648438 L 202.261719 115.585938 L 206.597656 115.585938 C 208.46875 115.652344 214.09375 115.320312 218.613281 121.773438 L 214.292969 121.773438 L 214.292969 135.476562 L 224.980469 135.476562 C 230.640625 137.195312 234.777344 142.472656 234.777344 148.710938 C 234.777344 151.441406 233.980469 153.972656 232.625 156.125 C 235.339844 159.300781 236.992188 163.4375 236.992188 167.972656 C 236.992188 175.8125 232.03125 182.515625 225.0625 185.078125 C 225.414062 186.253906 225.609375 187.511719 225.609375 188.816406 C 225.609375 195.984375 219.804688 201.804688 212.625 201.804688 C 211.132812 201.804688 209.710938 201.539062 208.371094 201.078125 C 207.957031 206.917969 203.058594 211.566406 197.136719 211.566406 L 185.851562 211.566406 Z M 197.136719 110.40625 Z M 223.558594 105.375 L 216.3125 105.375 L 216.3125 112.625 L 223.558594 112.625 Z M 237.242188 123.082031 L 229.996094 123.082031 L 229.996094 130.328125 L 237.242188 130.328125 Z M 225.578125 86.183594 L 220.449219 86.183594 L 220.449219 91.3125 L 225.578125 91.3125 Z M 215.054688 92.800781 L 209.113281 92.800781 L 209.113281 98.742188 L 215.054688 98.742188 Z M 233.039062 112.589844 L 227.910156 112.589844 L 227.910156 117.71875 L 233.039062 117.71875 Z M 208.980469 107.0625 L 205.078125 107.0625 L 205.078125 110.96875 L 208.980469 110.96875 Z M 226.023438 123.957031 L 216.261719 123.957031 L 216.261719 133.71875 L 226.023438 133.71875 Z M 197.136719 126.257812 L 197.136719 130.988281 L 201.667969 130.988281 L 201.667969 126.257812 Z M 205.835938 141.515625 L 198.390625 141.515625 L 198.390625 148.960938 L 205.835938 148.960938 Z M 220.332031 140.207031 L 212.886719 140.207031 L 212.886719 147.652344 L 220.332031 147.652344 Z M 208.796875 132.597656 L 204.085938 132.597656 L 204.085938 137.328125 L 208.796875 137.328125 Z M 211.332031 118 L 206.597656 118 L 206.597656 122.734375 L 211.332031 122.734375 Z M 211.332031 118 " fill-opacity="1" fill-rule="evenodd"/></g><g fill="#ffffff" fill-opacity="1"><g transform="translate(95.905318, 265.361848)"><g><path d="M 9.6875 0.3125 C 6.5625 0.3125 4.304688 -0.457031 2.921875 -2 C 1.535156 -3.539062 0.84375 -6.035156 0.84375 -9.484375 L 0.84375 -12.84375 L 7.59375 -12.84375 L 7.59375 -8.5625 C 7.59375 -6.851562 8.140625 -6 9.234375 -6 C 9.847656 -6 10.273438 -6.175781 10.515625 -6.53125 C 10.753906 -6.894531 10.875 -7.503906 10.875 -8.359375 C 10.875 -9.484375 10.738281 -10.410156 10.46875 -11.140625 C 10.207031 -11.867188 9.867188 -12.476562 9.453125 -12.96875 C 9.046875 -13.46875 8.304688 -14.238281 7.234375 -15.28125 L 4.28125 -18.234375 C 1.988281 -20.472656 0.84375 -22.957031 0.84375 -25.6875 C 0.84375 -28.613281 1.515625 -30.84375 2.859375 -32.375 C 4.203125 -33.914062 6.171875 -34.6875 8.765625 -34.6875 C 11.859375 -34.6875 14.082031 -33.863281 15.4375 -32.21875 C 16.800781 -30.582031 17.484375 -28.015625 17.484375 -24.515625 L 10.484375 -24.515625 L 10.4375 -26.875 C 10.4375 -27.332031 10.3125 -27.691406 10.0625 -27.953125 C 9.8125 -28.222656 9.457031 -28.359375 9 -28.359375 C 8.46875 -28.359375 8.066406 -28.210938 7.796875 -27.921875 C 7.535156 -27.628906 7.40625 -27.226562 7.40625 -26.71875 C 7.40625 -25.601562 8.039062 -24.441406 9.3125 -23.234375 L 13.3125 -19.40625 C 14.25 -18.5 15.023438 -17.632812 15.640625 -16.8125 C 16.253906 -16 16.75 -15.039062 17.125 -13.9375 C 17.5 -12.832031 17.6875 -11.519531 17.6875 -10 C 17.6875 -6.613281 17.0625 -4.046875 15.8125 -2.296875 C 14.570312 -0.554688 12.53125 0.3125 9.6875 0.3125 Z M 9.6875 0.3125 "/></g></g></g><g fill="#ffffff" fill-opacity="1"><g transform="translate(114.343489, 265.361848)"><g><path d="M 1.515625 0 L 1.515625 -34.359375 L 12 -34.359375 L 14.875 -13.40625 L 17.765625 -34.359375 L 28.3125 -34.359375 L 28.3125 0 L 22.046875 0 L 22.046875 -24.765625 L 18.078125 0 L 11.921875 0 L 7.71875 -24.765625 L 7.71875 0 Z M 1.515625 0 "/></g></g></g><g fill="#ffffff" fill-opacity="1"><g transform="translate(144.180523, 265.361848)"><g><path d="M 0.59375 0 L 3.921875 -34.359375 L 15.5625 -34.359375 L 18.84375 0 L 12.3125 0 L 11.84375 -5.5625 L 7.6875 -5.5625 L 7.28125 0 Z M 8.203125 -11.046875 L 11.3125 -11.046875 L 9.796875 -28.515625 L 9.484375 -28.515625 Z M 8.203125 -11.046875 "/></g></g></g><g fill="#ffffff" fill-opacity="1"><g transform="translate(163.578601, 265.361848)"><g><path d="M 1.515625 -34.359375 L 12.078125 -34.359375 C 13.753906 -34.359375 15.050781 -33.976562 15.96875 -33.21875 C 16.894531 -32.457031 17.515625 -31.390625 17.828125 -30.015625 C 18.148438 -28.640625 18.3125 -26.890625 18.3125 -24.765625 C 18.3125 -22.816406 18.054688 -21.296875 17.546875 -20.203125 C 17.046875 -19.109375 16.171875 -18.347656 14.921875 -17.921875 C 15.960938 -17.703125 16.710938 -17.179688 17.171875 -16.359375 C 17.640625 -15.535156 17.875 -14.414062 17.875 -13 L 17.796875 0 L 11.078125 0 L 11.078125 -13.4375 C 11.078125 -14.394531 10.890625 -15.007812 10.515625 -15.28125 C 10.140625 -15.550781 9.460938 -15.6875 8.484375 -15.6875 L 8.484375 0 L 1.515625 0 Z M 10.15625 -21.640625 C 11.113281 -21.640625 11.59375 -22.679688 11.59375 -24.765625 C 11.59375 -25.671875 11.550781 -26.347656 11.46875 -26.796875 C 11.394531 -27.253906 11.25 -27.566406 11.03125 -27.734375 C 10.820312 -27.910156 10.519531 -28 10.125 -28 L 8.515625 -28 L 8.515625 -21.640625 Z M 10.15625 -21.640625 "/></g></g></g><g fill="#ffffff" fill-opacity="1"><g transform="translate(182.656701, 265.361848)"><g><path d="M 4.484375 0 L 4.484375 -27.765625 L 0.40625 -27.765625 L 0.40625 -34.359375 L 15.4375 -34.359375 L 15.4375 -27.765625 L 11.359375 -27.765625 L 11.359375 0 Z M 4.484375 0 "/></g></g></g><g fill="#ffffff" fill-opacity="1"><g transform="translate(198.495129, 265.361848)"><g/></g></g><g fill="#ffffff" fill-opacity="1"><g transform="translate(207.854198, 265.361848)"><g><path d="M 4.484375 0 L 4.484375 -27.765625 L 0.40625 -27.765625 L 0.40625 -34.359375 L 15.4375 -34.359375 L 15.4375 -27.765625 L 11.359375 -27.765625 L 11.359375 0 Z M 4.484375 0 "/></g></g></g><g fill="#ffffff" fill-opacity="1"><g transform="translate(223.692626, 265.361848)"><g><path d="M 1.203125 0 L 1.203125 -34.359375 L 7.84375 -34.359375 L 7.84375 0 Z M 1.203125 0 "/></g></g></g><g fill="#ffffff" fill-opacity="1"><g transform="translate(232.771727, 265.361848)"><g><path d="M 1.515625 0 L 1.515625 -34.359375 L 12 -34.359375 L 14.875 -13.40625 L 17.765625 -34.359375 L 28.3125 -34.359375 L 28.3125 0 L 22.046875 0 L 22.046875 -24.765625 L 18.078125 0 L 11.921875 0 L 7.71875 -24.765625 L 7.71875 0 Z M 1.515625 0 "/></g></g></g><g fill="#ffffff" fill-opacity="1"><g transform="translate(262.608761, 265.361848)"><g><path d="M 1.515625 0 L 1.515625 -34.359375 L 15.28125 -34.359375 L 15.28125 -27.71875 L 8.515625 -27.71875 L 8.515625 -21.046875 L 15 -21.046875 L 15 -14.5625 L 8.515625 -14.5625 L 8.515625 -6.6875 L 15.71875 -6.6875 L 15.71875 0 Z M 1.515625 0 "/></g></g></g></svg>