<svg xmlns="http://www.w3.org/2000/svg" xmlns:xlink="http://www.w3.org/1999/xlink" width="500" zoomAndPan="magnify" viewBox="0 0 375 374.999991" height="500" preserveAspectRatio="xMidYMid meet" version="1.0"><defs><clipPath id="bdb86fd1f2"><path d="M 40.195312 79 L 171 79 L 171 364.773438 L 40.195312 364.773438 Z M 40.195312 79 " clip-rule="nonzero"/></clipPath><clipPath id="fb7b9ed0b6"><path d="M 116 10.21875 L 334.945312 10.21875 L 334.945312 364.773438 L 116 364.773438 Z M 116 10.21875 " clip-rule="nonzero"/></clipPath></defs><g clip-path="url(#bdb86fd1f2)"><path fill="#ff9500" d="M 170.796875 79.660156 C 97.605469 85.976562 40.195312 147.367188 40.195312 222.195312 C 40.195312 297.027344 97.605469 358.417969 170.796875 364.785156 L 170.796875 340.484375 C 145.226562 337.816406 122.09375 327.042969 103.976562 310.796875 L 119.570312 295.15625 C 122.09375 292.628906 122.09375 288.453125 119.570312 285.929688 C 117.042969 283.402344 112.871094 283.402344 110.34375 285.929688 L 94.699219 301.570312 C 77.183594 281.996094 66.042969 256.660156 64.546875 228.753906 L 86.644531 228.753906 C 90.25 228.753906 93.203125 225.800781 93.203125 222.195312 C 93.203125 218.589844 90.25 215.6875 86.644531 215.6875 L 64.546875 215.6875 C 66.042969 187.785156 77.183594 162.398438 94.699219 142.875 L 110.34375 158.515625 C 112.871094 161.042969 117.042969 161.042969 119.570312 158.515625 C 122.09375 155.9375 122.09375 151.816406 119.570312 149.246094 L 103.976562 133.65625 C 122.09375 117.402344 145.230469 106.636719 170.796875 103.96875 Z M 170.796875 79.660156 " fill-opacity="1" fill-rule="evenodd"/></g><g clip-path="url(#fb7b9ed0b6)"><path fill="#ff9500" d="M 334.828125 38.449219 L 302.332031 38.449219 L 302.332031 70.945312 L 334.828125 70.945312 Z M 182.832031 232.269531 L 116.757812 222.949219 L 182.832031 213.628906 L 182.832031 78.632812 L 214.769531 78.632812 C 219.964844 78.632812 224.929688 79.894531 229.28125 82.144531 L 229.28125 93.285156 L 241.550781 93.285156 C 246.847656 93.472656 262.765625 92.535156 275.546875 110.800781 L 263.328125 110.800781 L 263.328125 149.574219 L 293.574219 149.574219 C 309.59375 154.441406 321.292969 169.382812 321.292969 187.03125 C 321.292969 194.761719 319.046875 201.921875 315.207031 208.011719 C 322.882812 217 327.570312 228.703125 327.570312 241.535156 C 327.570312 263.730469 313.523438 282.699219 293.808594 289.953125 C 294.792969 293.273438 295.355469 296.835938 295.355469 300.535156 C 295.355469 320.808594 278.917969 337.289062 258.601562 337.289062 C 254.382812 337.289062 250.359375 336.539062 246.5625 335.230469 C 245.390625 351.761719 231.53125 364.917969 214.769531 364.917969 L 182.832031 364.917969 Z M 214.769531 78.632812 Z M 289.550781 64.394531 L 269.039062 64.394531 L 269.039062 84.90625 L 289.550781 84.90625 Z M 328.269531 114.5 L 307.761719 114.5 L 307.761719 135.011719 L 328.269531 135.011719 Z M 295.261719 10.074219 L 280.75 10.074219 L 280.75 24.585938 L 295.261719 24.585938 Z M 265.476562 28.804688 L 248.664062 28.804688 L 248.664062 45.617188 L 265.476562 45.617188 Z M 316.375 84.804688 L 301.863281 84.804688 L 301.863281 99.320312 L 316.375 99.320312 Z M 248.292969 69.171875 L 237.246094 69.171875 L 237.246094 80.222656 L 248.292969 80.222656 Z M 296.527344 116.976562 L 268.898438 116.976562 L 268.898438 144.605469 L 296.527344 144.605469 Z M 214.769531 123.484375 L 214.769531 136.875 L 227.601562 136.875 L 227.601562 123.484375 Z M 239.394531 166.664062 L 218.324219 166.664062 L 218.324219 187.734375 L 239.394531 187.734375 Z M 280.414062 162.964844 L 259.34375 162.964844 L 259.34375 184.035156 L 280.414062 184.035156 Z M 247.777344 141.425781 L 234.433594 141.425781 L 234.433594 154.816406 L 247.777344 154.816406 Z M 254.945312 100.121094 L 241.550781 100.121094 L 241.550781 113.511719 L 254.945312 113.511719 Z M 254.945312 100.121094 " fill-opacity="1" fill-rule="evenodd"/></g></svg>